<svg xmlns="http://www.w3.org/2000/svg" width="2400" height="1350" viewBox="0 0 2400 1350" role="img" aria-label="3D diamond showing internal data-facets">
  <defs>
    <linearGradient id="g0" x1="0" y1="0" x2="1" y2="1">
      <stop offset="0" stop-color="#05070c"/>
      <stop offset="1" stop-color="#0b1020"/>
    </linearGradient>
    <radialGradient id="goldGlow" cx="30%" cy="24%" r="70%">
      <stop offset="0" stop-color="rgba(212,175,55,.26)"/>
      <stop offset="0.55" stop-color="rgba(212,175,55,.08)"/>
      <stop offset="1" stop-color="rgba(212,175,55,0)"/>
    </radialGradient>
    <radialGradient id="blueGlow" cx="80%" cy="18%" r="70%">
      <stop offset="0" stop-color="rgba(212,175,55,.14)"/>
      <stop offset="1" stop-color="rgba(120,180,255,0)"/>
    </radialGradient>
    <filter id="blur" x="-20%" y="-20%" width="140%" height="140%">
      <feGaussianBlur stdDeviation="8"/>
    </filter>
  </defs>

  <rect width="2400" height="1350" fill="url(#g0)"/>
  <rect width="2400" height="1350" fill="url(#goldGlow)"/>
  <rect width="2400" height="1350" fill="url(#blueGlow)"/>

  <g opacity="0.8"><path d="M 1672.8 32.0 Q 835.2 53.2 600.9 401.8" stroke="rgba(243,210,122,0.130)" stroke-width="2.19" fill="none"/><path d="M 2247.3 144.6 Q 1726.7 488.7 1195.5 1268.9" stroke="rgba(243,210,122,0.077)" stroke-width="2.06" fill="none"/><path d="M 1256.8 1265.0 Q 422.6 940.4 216.6 595.0" stroke="rgba(243,210,122,0.106)" stroke-width="1.64" fill="none"/><path d="M 1306.2 913.5 Q 934.2 914.4 730.7 495.3" stroke="rgba(243,210,122,0.103)" stroke-width="2.19" fill="none"/><path d="M 565.4 160.1 Q 924.1 95.5 801.5 301.4" stroke="rgba(243,210,122,0.127)" stroke-width="1.07" fill="none"/><path d="M 2448.5 714.8 Q 1915.7 693.0 1652.3 728.7" stroke="rgba(243,210,122,0.072)" stroke-width="2.08" fill="none"/><path d="M -71.7 1439.4 Q 33.5 715.8 -110.3 422.7" stroke="rgba(243,210,122,0.081)" stroke-width="1.05" fill="none"/><path d="M 1015.7 1411.9 Q 1556.6 1254.4 2473.7 1277.9" stroke="rgba(243,210,122,0.070)" stroke-width="1.20" fill="none"/><path d="M 2321.8 128.1 Q 1712.9 577.3 782.2 1290.7" stroke="rgba(243,210,122,0.102)" stroke-width="1.85" fill="none"/><path d="M 966.8 1067.5 Q 972.4 728.4 1538.7 647.8" stroke="rgba(243,210,122,0.131)" stroke-width="1.59" fill="none"/><path d="M -114.3 585.4 Q 55.9 209.1 31.2 -54.4" stroke="rgba(243,210,122,0.111)" stroke-width="1.96" fill="none"/><path d="M 1539.8 -81.5 Q 881.3 37.1 861.9 50.4" stroke="rgba(243,210,122,0.117)" stroke-width="1.86" fill="none"/><path d="M 747.0 700.5 Q 1645.3 237.4 2425.6 203.8" stroke="rgba(243,210,122,0.088)" stroke-width="1.64" fill="none"/><path d="M 1844.3 947.4 Q 1417.1 1161.2 1518.5 1428.2" stroke="rgba(243,210,122,0.073)" stroke-width="1.06" fill="none"/></g>
  <g><circle cx="1071.6" cy="90.2" r="4.0" fill="rgba(212,175,55,0.103)"/><circle cx="2294.8" cy="1252.3" r="3.9" fill="rgba(212,175,55,0.080)"/><circle cx="299.8" cy="1331.4" r="3.2" fill="rgba(212,175,55,0.076)"/><circle cx="1500.5" cy="827.7" r="5.9" fill="rgba(212,175,55,0.074)"/><circle cx="1665.8" cy="105.6" r="4.5" fill="rgba(212,175,55,0.126)"/><circle cx="1775.5" cy="390.4" r="4.7" fill="rgba(212,175,55,0.070)"/><circle cx="1466.1" cy="273.9" r="2.3" fill="rgba(212,175,55,0.071)"/><circle cx="1586.6" cy="67.6" r="2.2" fill="rgba(212,175,55,0.061)"/><circle cx="1713.6" cy="558.5" r="3.8" fill="rgba(212,175,55,0.096)"/><circle cx="568.1" cy="199.8" r="3.2" fill="rgba(212,175,55,0.084)"/><circle cx="697.4" cy="132.6" r="2.4" fill="rgba(212,175,55,0.128)"/><circle cx="1476.9" cy="336.1" r="4.9" fill="rgba(212,175,55,0.090)"/><circle cx="1789.4" cy="656.4" r="4.8" fill="rgba(212,175,55,0.126)"/><circle cx="1675.1" cy="980.9" r="4.5" fill="rgba(212,175,55,0.140)"/><circle cx="1252.4" cy="37.6" r="5.7" fill="rgba(212,175,55,0.091)"/><circle cx="1926.8" cy="583.8" r="4.2" fill="rgba(212,175,55,0.101)"/><circle cx="596.3" cy="702.9" r="5.9" fill="rgba(212,175,55,0.058)"/><circle cx="620.6" cy="29.1" r="3.9" fill="rgba(212,175,55,0.089)"/><circle cx="641.9" cy="1037.7" r="5.5" fill="rgba(212,175,55,0.059)"/><circle cx="2377.8" cy="185.4" r="4.2" fill="rgba(212,175,55,0.057)"/><circle cx="1125.4" cy="42.0" r="3.3" fill="rgba(212,175,55,0.102)"/><circle cx="2045.8" cy="514.4" r="2.7" fill="rgba(212,175,55,0.079)"/><circle cx="556.9" cy="233.7" r="2.5" fill="rgba(212,175,55,0.140)"/><circle cx="91.3" cy="432.1" r="5.5" fill="rgba(212,175,55,0.052)"/><circle cx="804.2" cy="1271.5" r="3.4" fill="rgba(212,175,55,0.127)"/><circle cx="789.4" cy="1284.4" r="4.0" fill="rgba(212,175,55,0.064)"/><circle cx="1188.3" cy="1091.1" r="5.1" fill="rgba(212,175,55,0.103)"/><circle cx="1383.0" cy="1283.5" r="2.4" fill="rgba(212,175,55,0.115)"/><circle cx="530.4" cy="848.4" r="2.6" fill="rgba(212,175,55,0.054)"/><circle cx="1847.3" cy="699.8" r="5.6" fill="rgba(212,175,55,0.069)"/><circle cx="318.2" cy="648.0" r="5.9" fill="rgba(212,175,55,0.052)"/><circle cx="1924.9" cy="891.2" r="5.0" fill="rgba(212,175,55,0.072)"/><circle cx="1169.3" cy="26.8" r="2.1" fill="rgba(212,175,55,0.116)"/><circle cx="27.7" cy="1335.6" r="2.5" fill="rgba(212,175,55,0.133)"/><circle cx="1992.6" cy="405.9" r="3.0" fill="rgba(212,175,55,0.130)"/><circle cx="1209.9" cy="1279.8" r="5.6" fill="rgba(212,175,55,0.079)"/><circle cx="2313.9" cy="683.5" r="5.5" fill="rgba(212,175,55,0.124)"/><circle cx="133.7" cy="581.5" r="4.7" fill="rgba(212,175,55,0.089)"/></g>

  <g filter="url(#blur)" opacity="0.9">
    <circle cx="1752.0" cy="621.0" r="210" fill="rgba(255,255,255,.04)"/>
  </g>

  <g><circle cx="1752.0" cy="621.0" r="160" fill="none" stroke="rgba(212,175,55,0.180)" stroke-width="1.2"/><circle cx="1752.0" cy="621.0" r="215" fill="none" stroke="rgba(212,175,55,0.150)" stroke-width="1.2"/><circle cx="1752.0" cy="621.0" r="270" fill="none" stroke="rgba(212,175,55,0.120)" stroke-width="1.2"/><circle cx="1752.0" cy="621.0" r="325" fill="none" stroke="rgba(212,175,55,0.090)" stroke-width="1.2"/></g>

  <g>
    <rect x="1562.0" y="555.0" width="380" height="132" rx="26" fill="rgba(255,255,255,.05)" stroke="rgba(255,255,255,.10)"/>
    <text x="1752.0" y="613.0" text-anchor="middle" font-family="ui-sans-serif,system-ui" font-size="50" fill="rgba(245,247,255,.92)" letter-spacing="2">W3</text>
    <text x="1752.0" y="655.0" text-anchor="middle" font-family="ui-sans-serif,system-ui" font-size="22" fill="rgba(245,247,255,.60)" letter-spacing="1">w3.diamonds</text>
  </g>

  <g opacity="0.9">
    <circle cx="432.0" cy="1053.0" r="280" fill="rgba(212,175,55,.06)"/>
    <circle cx="432.0" cy="1053.0" r="279" fill="none" stroke="rgba(255,255,255,.06)"/>
  </g>
</svg>